<svg xmlns="http://www.w3.org/2000/svg" xmlns:xlink="http://www.w3.org/1999/xlink" width="312" height="66.957" viewBox="0 0 312 66.957">
  <defs>
    <filter id="Path_1" x="79.615" y="49.443" width="199.402" height="15.835" filterUnits="userSpaceOnUse">
      <feOffset dy="1" input="SourceAlpha"/>
      <feGaussianBlur stdDeviation="1.5" result="blur"/>
      <feFlood flood-opacity="0.302"/>
      <feComposite operator="in" in2="blur"/>
      <feComposite in="SourceGraphic"/>
    </filter>
    <filter id="Path_2" x="79.572" y="16.375" width="223.527" height="32.358" filterUnits="userSpaceOnUse">
      <feOffset dy="1" input="SourceAlpha"/>
      <feGaussianBlur stdDeviation="1.5" result="blur-2"/>
      <feFlood flood-opacity="0.302"/>
      <feComposite operator="in" in2="blur-2"/>
      <feComposite in="SourceGraphic"/>
    </filter>
    <filter id="Path_3" x="298.55" y="35.028" width="11.811" height="12.215" filterUnits="userSpaceOnUse">
      <feOffset dy="1" input="SourceAlpha"/>
      <feGaussianBlur stdDeviation="1.5" result="blur-3"/>
      <feFlood flood-opacity="0.302"/>
      <feComposite operator="in" in2="blur-3"/>
      <feComposite in="SourceGraphic"/>
    </filter>
    <filter id="Path_4" x="296.548" y="33.388" width="15.452" height="15.452" filterUnits="userSpaceOnUse">
      <feOffset dy="1" input="SourceAlpha"/>
      <feGaussianBlur stdDeviation="1.5" result="blur-4"/>
      <feFlood flood-opacity="0.302"/>
      <feComposite operator="in" in2="blur-4"/>
      <feComposite in="SourceGraphic"/>
    </filter>
    <filter id="Path_509" x="287.179" y="51.21" width="12.875" height="14.025" filterUnits="userSpaceOnUse">
      <feOffset dy="1" input="SourceAlpha"/>
      <feGaussianBlur stdDeviation="1.5" result="blur-5"/>
      <feFlood flood-opacity="0.302"/>
      <feComposite operator="in" in2="blur-5"/>
      <feComposite in="SourceGraphic"/>
    </filter>
    <filter id="Path_510" x="275.489" y="51.21" width="12.641" height="14.025" filterUnits="userSpaceOnUse">
      <feOffset dy="1" input="SourceAlpha"/>
      <feGaussianBlur stdDeviation="1.5" result="blur-6"/>
      <feFlood flood-opacity="0.302"/>
      <feComposite operator="in" in2="blur-6"/>
      <feComposite in="SourceGraphic"/>
    </filter>
    <filter id="Path_511" x="281.153" y="51.21" width="12.982" height="14.025" filterUnits="userSpaceOnUse">
      <feOffset dy="1" input="SourceAlpha"/>
      <feGaussianBlur stdDeviation="1.5" result="blur-7"/>
      <feFlood flood-opacity="0.302"/>
      <feComposite operator="in" in2="blur-7"/>
      <feComposite in="SourceGraphic"/>
    </filter>
    <linearGradient id="linear-gradient" x1="0.026" y1="0.807" x2="0.965" y2="0.211" gradientUnits="objectBoundingBox">
      <stop offset="0" stop-color="#009247"/>
      <stop offset="1" stop-color="#d7df23"/>
    </linearGradient>
    <filter id="Path_38" x="0" y="0" width="74.649" height="66.957" filterUnits="userSpaceOnUse">
      <feOffset dy="1" input="SourceAlpha"/>
      <feGaussianBlur stdDeviation="1.5" result="blur-8"/>
      <feFlood flood-opacity="0.302"/>
      <feComposite operator="in" in2="blur-8"/>
      <feComposite in="SourceGraphic"/>
    </filter>
  </defs>
  <g id="AGROCAPITAL__LOGO_HORIZONTAL" data-name="AGROCAPITAL_ LOGO HORIZONTAL" transform="translate(-69.3 -26.997)">
    <g transform="matrix(1, 0, 0, 1, 69.3, 27)" filter="url(#Path_1)">
      <path id="Path_1-2" data-name="Path 1" d="M634.44,269.365V264.34h3.6v.618h-2.9v1.512h2.683v.575h-2.683v1.682h2.96v.639Zm-4.855,0V264.34h.7v4.386h2.491v.639Zm-5.494,0V264.34h1.831a5.325,5.325,0,0,1,.7.043.933.933,0,0,1,.4.149,1.158,1.158,0,0,1,.468.49,1.7,1.7,0,0,1,.17.767,1.671,1.671,0,0,1-.17.745,1.354,1.354,0,0,1-.468.511,2.5,2.5,0,0,1-.426.149,3.712,3.712,0,0,1-.809.064h-1.043v2.129h-.66Zm.66-2.725h1.15a1.36,1.36,0,0,0,.83-.192.784.784,0,0,0,.234-.66.739.739,0,0,0-.234-.639,1.257,1.257,0,0,0-.788-.192H624.73v1.682Zm-3.556,2.725V264.34h.681v5.025Zm-4,0v-4.429h-1.576v-.6h3.854v.6h-1.6v4.429Zm-5.387,0V264.34h.681v4.386H615v.639Zm-4.621-5.472.7-1.192h.7l-.979,1.192Zm-1.469,3.556v-3.13h.681v3.13a1.457,1.457,0,0,0,.319,1.043,1.227,1.227,0,0,0,.958.341,1.2,1.2,0,0,0,.958-.341,1.493,1.493,0,0,0,.319-1.043v-3.13h.7v3.13a2.123,2.123,0,0,1-.532,1.533,2.082,2.082,0,0,1-1.533.511,1.885,1.885,0,0,1-1.427-.511,2.235,2.235,0,0,1-.447-1.533Zm-6.239-2.364v4.28h-.639V264.34h.979l1.235,3.854c.043.106.064.192.085.255a1.357,1.357,0,0,0,.043.149.754.754,0,0,1,.064-.234.674.674,0,0,1,.064-.192l1.278-3.854h.979v5.046h-.66v-4.28c-.021.064-.043.149-.064.213-.021.085-.043.149-.064.234l-1.3,3.854h-.639l-1.278-3.854c-.021-.064-.043-.149-.064-.213a.8.8,0,0,1-.021-.234Zm-9.561,1.767a2.859,2.859,0,0,1,.617-1.938,2.278,2.278,0,0,1,1.767-.7,2.231,2.231,0,0,1,1.746.7,2.72,2.72,0,0,1,.617,1.938,2.811,2.811,0,0,1-.617,1.959,2.2,2.2,0,0,1-1.746.7,2.278,2.278,0,0,1-1.767-.7,2.957,2.957,0,0,1-.617-1.959Zm.7,0a2.287,2.287,0,0,0,.447,1.512,1.511,1.511,0,0,0,1.235.554,1.57,1.57,0,0,0,1.235-.554,2.411,2.411,0,0,0,.447-1.512,2.326,2.326,0,0,0-.447-1.512,1.5,1.5,0,0,0-1.235-.532,1.56,1.56,0,0,0-1.235.532,2.326,2.326,0,0,0-.447,1.512Zm-4.472,2.513v-4.429h-1.6v-.6H588.4v.6h-1.576v4.429Zm-6.686,0V264.34h3.6v.618h-2.9v1.512h2.683v.575h-2.683v1.682h2.96v.639Zm-5.025-1.64h.66a.128.128,0,0,0-.021.085v.128a1.028,1.028,0,0,0,.192.7.756.756,0,0,0,.617.234.845.845,0,0,0,.426-.085.857.857,0,0,0,.277-.277,2.21,2.21,0,0,0,.064-.256,3.809,3.809,0,0,0,.021-.575V264.34h.681v3.641a1.652,1.652,0,0,1-.362,1.15,1.537,1.537,0,0,1-1.107.362,1.488,1.488,0,0,1-1.107-.383,1.675,1.675,0,0,1-.362-1.171v-.128a.128.128,0,0,1,.021-.085Zm-4.663,1.022h1.405a1.092,1.092,0,0,0,.788-.234.8.8,0,0,0,.277-.66.7.7,0,0,0-.277-.639,1.388,1.388,0,0,0-.873-.213h-1.32v1.746Zm0-2.3h1.214a1.228,1.228,0,0,0,.767-.192.688.688,0,0,0,.255-.6.721.721,0,0,0-.234-.575,1.159,1.159,0,0,0-.745-.192h-1.256v1.554Zm-.681,2.917V264.34h2.023a1.975,1.975,0,0,1,1.171.3,1.129,1.129,0,0,1,.4.916,1.1,1.1,0,0,1-.192.66,1.151,1.151,0,0,1-.532.4,1.171,1.171,0,0,1,.7.4,1.283,1.283,0,0,1,.234.788,1.46,1.46,0,0,1-.447,1.107,1.729,1.729,0,0,1-1.235.4h-2.129Zm-6.729-2.513a2.762,2.762,0,0,1,.639-1.938,2.2,2.2,0,0,1,1.746-.7,2.231,2.231,0,0,1,1.746.7,2.72,2.72,0,0,1,.617,1.938,2.811,2.811,0,0,1-.617,1.959,2.521,2.521,0,0,1-3.492,0,2.855,2.855,0,0,1-.639-1.959Zm.7,0a2.287,2.287,0,0,0,.447,1.512,1.511,1.511,0,0,0,1.235.554,1.57,1.57,0,0,0,1.235-.554,2.287,2.287,0,0,0,.447-1.512,2.327,2.327,0,0,0-.447-1.512,1.5,1.5,0,0,0-1.235-.532,1.56,1.56,0,0,0-1.235.532,2.326,2.326,0,0,0-.447,1.512Zm-8.6,2.513V264.34h3.577v.618h-2.9v1.512h2.683v.575h-2.683v1.682h2.96v.639Zm-6.047,0V264.34h1.916a2.043,2.043,0,0,1,1.618.618,2.666,2.666,0,0,1,.554,1.81,2.939,2.939,0,0,1-.575,1.916,2.013,2.013,0,0,1-1.618.681Zm1.874-4.45H549.1v3.833h1.192a1.385,1.385,0,0,0,1.15-.49,2.3,2.3,0,0,0,.383-1.448,2.21,2.21,0,0,0-.4-1.405,1.434,1.434,0,0,0-1.129-.49Zm-10.05,4.45,1.874-5.025h.745l1.874,5.025h-.724l-.532-1.512h-1.959l-.532,1.512Zm1.448-2.087h1.576l-.767-2.214Zm-6.643-2.938H537c.319,0,.532.021.7.021a1.318,1.318,0,0,1,.4.149,1.205,1.205,0,0,1,.49.49,1.579,1.579,0,0,1,.17.724,1.238,1.238,0,0,1-.192.7,1.063,1.063,0,0,1-.511.447.658.658,0,0,1,.4.277,1.255,1.255,0,0,1,.149.66l.064.83c.021.17.043.3.064.4a.464.464,0,0,0,.149.192v.149h-.788a1.794,1.794,0,0,1-.128-.681v-.021l-.043-.66a1.032,1.032,0,0,0-.213-.66,1.66,1.66,0,0,0-.916-.149H535.7v2.151h-.681V264.34Zm.681.575v1.7H536.9a1.378,1.378,0,0,0,.894-.213.81.81,0,0,0,.256-.681.756.756,0,0,0-.234-.617,1.579,1.579,0,0,0-.916-.192Zm-6.239,4.45V264.34h3.577v.618h-2.9v1.512h2.683v.575h-2.683v1.682h2.981v.639Zm-2.9,0V264.34h.681v5.025Zm-2.576-1.874h.66a2.034,2.034,0,0,1-.617,1.469,2.332,2.332,0,0,1-3.151-.17,3.039,3.039,0,0,1-.617-2,2.667,2.667,0,0,1,.639-1.874,2.21,2.21,0,0,1,1.7-.7,2.138,2.138,0,0,1,1.405.447,1.794,1.794,0,0,1,.639,1.214h-.66a1.167,1.167,0,0,0-.447-.767,1.444,1.444,0,0,0-.937-.277,1.533,1.533,0,0,0-1.192.532,2.411,2.411,0,0,0-.4,1.512,2.473,2.473,0,0,0,.426,1.491,1.533,1.533,0,0,0,2.193.17,1.971,1.971,0,0,0,.362-1.043Zm-9.667,1.874V264.34h.745l2.342,3.641a1.428,1.428,0,0,1,.149.234c.021.064.064.128.085.192V264.34h.66v5.025h-.745l-2.385-3.7c-.043-.064-.064-.128-.107-.192s-.064-.128-.106-.192v4.088Zm-6.111,0,1.874-5.025h.745l1.852,5.025h-.745l-.532-1.512h-1.98l-.532,1.512Zm1.448-2.087h1.576l-.788-2.214Zm-7.048,2.087V264.34h.745l2.342,3.641a1.434,1.434,0,0,1,.149.234.757.757,0,0,1,.085.192V264.34h.66v5.025h-.745l-2.385-3.7c-.043-.064-.064-.128-.106-.192-.021-.064-.064-.128-.085-.192v4.088Zm-2.875,0V264.34h.681v5.025Zm-5.217,0V264.34h3.386v.618h-2.683v1.512h2.342v.617h-2.342v2.278Zm-8.368,0V264.34h1.916a2.043,2.043,0,0,1,1.618.618,2.666,2.666,0,0,1,.554,1.81,2.939,2.939,0,0,1-.575,1.916,2.013,2.013,0,0,1-1.618.681Zm1.852-4.45h-1.171v3.833h1.171a1.385,1.385,0,0,0,1.15-.49,2.3,2.3,0,0,0,.383-1.448,2.211,2.211,0,0,0-.383-1.405,1.448,1.448,0,0,0-1.15-.49Zm-7.985,4.45,1.874-5.025h.745l1.874,5.025h-.745l-.532-1.512h-1.98l-.511,1.512Zm1.469-2.087h1.576l-.767-2.214Zm-6.9,2.087V264.34h1.916a2.043,2.043,0,0,1,1.618.618,2.666,2.666,0,0,1,.554,1.81,2.939,2.939,0,0,1-.575,1.916,2.013,2.013,0,0,1-1.618.681Zm1.853-4.45H475.3v3.833h1.171a1.385,1.385,0,0,0,1.15-.49A2.3,2.3,0,0,0,478,266.81a2.211,2.211,0,0,0-.383-1.405,1.419,1.419,0,0,0-1.15-.49Zm-7.431,4.45V264.34h3.6v.618h-2.9v1.512h2.683v.575h-2.683v1.682h2.938v.639Zm-2.875,0V264.34h.681v5.025Zm-2.6-1.874h.66a2.034,2.034,0,0,1-.618,1.469,2.152,2.152,0,0,1-1.512.532,2.08,2.08,0,0,1-1.661-.7,3.033,3.033,0,0,1-.6-2,2.759,2.759,0,0,1,.618-1.874,2.276,2.276,0,0,1,1.7-.7,2.138,2.138,0,0,1,1.405.447,1.692,1.692,0,0,1,.617,1.214h-.66a1.168,1.168,0,0,0-.447-.767,1.383,1.383,0,0,0-.916-.277,1.5,1.5,0,0,0-1.192.532,2.41,2.41,0,0,0-.426,1.512,2.344,2.344,0,0,0,.447,1.491,1.415,1.415,0,0,0,1.171.554,1.451,1.451,0,0,0,1.022-.383,1.567,1.567,0,0,0,.383-1.043Zm-10.242-.639a2.762,2.762,0,0,1,.639-1.938,2.2,2.2,0,0,1,1.746-.7,2.231,2.231,0,0,1,1.746.7,2.72,2.72,0,0,1,.617,1.938,2.811,2.811,0,0,1-.617,1.959,2.521,2.521,0,0,1-3.492,0,2.855,2.855,0,0,1-.639-1.959Zm.724,0a2.287,2.287,0,0,0,.447,1.512,1.511,1.511,0,0,0,1.235.554,1.57,1.57,0,0,0,1.235-.554,2.411,2.411,0,0,0,.447-1.512,2.326,2.326,0,0,0-.447-1.512,1.5,1.5,0,0,0-1.235-.532,1.56,1.56,0,0,0-1.235.532,2.211,2.211,0,0,0-.447,1.512Zm-6.345.852h.66a1.138,1.138,0,0,0,.362.873,1.258,1.258,0,0,0,.937.319,1.567,1.567,0,0,0,.916-.234.764.764,0,0,0,.341-.66c0-.383-.426-.681-1.278-.873a.922.922,0,0,1-.106-.021,3.281,3.281,0,0,1-1.363-.532.992.992,0,0,1-.319-.83,1.314,1.314,0,0,1,.49-1.086,1.959,1.959,0,0,1,1.32-.4,1.871,1.871,0,0,1,1.32.447,1.463,1.463,0,0,1,.49,1.171h-.66a1.075,1.075,0,0,0-.341-.767,1.153,1.153,0,0,0-.83-.277,1.238,1.238,0,0,0-.788.213.717.717,0,0,0-.3.6c0,.383.4.66,1.235.873a2.787,2.787,0,0,1,.277.064c.021.021.021.021.064.021a3.222,3.222,0,0,1,1.065.4,1.171,1.171,0,0,1,.319.4,1.531,1.531,0,0,1-.4,1.7,2.211,2.211,0,0,1-1.405.426,1.989,1.989,0,0,1-1.427-.468,1.8,1.8,0,0,1-.575-1.363Z" transform="translate(-363.59 -209.76)" fill="#fff" fill-rule="evenodd"/>
    </g>
    <g transform="matrix(1, 0, 0, 1, 69.3, 27)" filter="url(#Path_2)">
      <path id="Path_2-2" data-name="Path 2" d="M524.24,130.758c-3.748,0-6.707-1.022-8.858-3.109a12.621,12.621,0,0,1,.064-16.949,12.085,12.085,0,0,1,8.794-3.173q5.557,0,8.815,3.13a11.328,11.328,0,0,1,3.237,8.5,11.163,11.163,0,0,1-3.3,8.411,12.131,12.131,0,0,1-8.751,3.194Zm-29.768-.468c.064-1.15.106-2.449.149-3.96.043-1.469.043-3.9.043-7.218,0-2.832-.021-5.089-.043-6.814-.043-1.725-.085-3.173-.17-4.408a1.41,1.41,0,0,0,.319.021c.6.043,1,.064,1.192.064.426,0,1.192-.043,2.364-.085,1.15-.043,2.129-.064,2.875-.064a9.465,9.465,0,0,1,5.557,1.341,4.564,4.564,0,0,1,1.81,3.982,5.058,5.058,0,0,1-1.7,3.9,9.351,9.351,0,0,1-4.855,2.172q2.332,3.1,8.283,10.434c.234.3.383.49.49.618a9.273,9.273,0,0,0-1.022-.106,7.057,7.057,0,0,0-.958-.043c-.3,0-.6.021-.894.043-.319.043-.639.064-1,.106-.852-1.214-1.6-2.3-2.257-3.215s-1.278-1.746-1.831-2.47l-3.577-4.6a1.98,1.98,0,0,0-.575-.554,1.579,1.579,0,0,0-.724-.17c-.128,0-.3.021-.554.043-.043,0-.064.021-.085.021v6c0,.724.021,1.512.043,2.321.043.809.085,1.682.128,2.6a6.049,6.049,0,0,0-.809-.106,4.131,4.131,0,0,0-.724-.043c-.234,0-.49.021-.745.043-.192.043-.447.085-.724.149Zm-4.45-.979a36.916,36.916,0,0,1-4.514,1.022,26.857,26.857,0,0,1-4.216.362c-3.748,0-6.707-1.022-8.9-3.045a10.651,10.651,0,0,1-3.3-8.219,11.268,11.268,0,0,1,3.535-8.709c2.342-2.172,5.515-3.237,9.454-3.237a17.128,17.128,0,0,1,4.408.532,12.835,12.835,0,0,1,3.662,1.554c-.17.49-.319,1-.447,1.469s-.234.937-.341,1.405a8.239,8.239,0,0,0-3.237-2.832,10.385,10.385,0,0,0-4.578-.937,8.477,8.477,0,0,0-6.665,2.853,10.97,10.97,0,0,0-2.513,7.58,10.613,10.613,0,0,0,2.619,7.5,9.068,9.068,0,0,0,6.963,2.832,14.029,14.029,0,0,0,2.7-.277,13.806,13.806,0,0,0,2.619-.83c0-.213.021-.681.043-1.448.043-.745.043-1.341.043-1.789,0-.49-.021-1.065-.043-1.682-.043-.618-.043-1.448-.106-2.513a5.811,5.811,0,0,0,.83.106,3.481,3.481,0,0,0,1.086,0c.192-.021.468-.043.809-.106-.021,1.171-.043,2.193-.064,3.045-.021.873-.043,1.576-.043,2.129,0,.639.021,1.214.043,1.746.064.554.085,1.043.149,1.491Zm159.187.979c.128-1.491.234-3.13.3-4.876s.106-3.833.106-6.281c0-2.342-.043-4.429-.106-6.26-.064-1.81-.17-3.471-.3-4.961.447.085.916.128,1.384.17.447.043.916.043,1.363.043.468,0,.916-.021,1.384-.043.447-.043.916-.085,1.363-.17-.128,1.533-.234,3.194-.3,5-.064,1.831-.106,3.9-.106,6.218,0,2.257.021,4.067.064,5.387s.106,2.47.17,3.428c1.341-.043,2.64-.106,3.854-.17,1.235-.085,2.449-.17,3.641-.3a6.208,6.208,0,0,0-.085.66c-.021.234-.043.468-.043.724,0,.213.021.447.043.681s.043.468.085.724c-1.533-.085-2.832-.149-3.9-.17-1.065-.043-2.023-.043-2.9-.043-.767,0-1.64.021-2.576.043q-1.405.064-3.449.192Zm-34.346,0c.128-1.64.234-3.364.3-5.2s.106-3.833.106-5.983c0-.745,0-1.874-.043-3.449-.021-1.554-.043-3.322-.106-5.259h-.681c-1.022,0-1.98.043-2.9.106s-1.789.17-2.619.3a4.375,4.375,0,0,0,.043-.7,6.321,6.321,0,0,0,.043-.83q0-.319-.064-.958c-.021-.17-.021-.3-.043-.4,1.767.106,3.364.17,4.748.192,1.405.043,2.726.043,3.961.043s2.576-.021,3.96-.043,2.981-.106,4.748-.192c-.043.213-.043.426-.085.66-.021.234-.043.468-.043.681,0,.234.021.49.043.724.021.256.043.532.085.809-.873-.128-1.746-.234-2.662-.3s-1.874-.106-2.875-.106h-.639c-.043.83-.106,1.725-.106,2.7-.021.979-.043,2.427-.043,4.344,0,3.386.043,6.026.107,7.878.043,1.874.149,3.513.255,4.961-.532-.043-1.022-.106-1.469-.106-.469-.043-.894-.043-1.32-.043s-.852.021-1.278.043c-.469.021-.937.064-1.427.128Zm-14.628,0c.106-1.448.192-2.981.255-4.663.064-1.661.085-3.833.085-6.516,0-2.6-.021-4.77-.085-6.516s-.149-3.322-.255-4.706c.468.085.937.128,1.405.17s.958.043,1.427.043c.49,0,.958-.021,1.405-.043.468-.043.937-.085,1.405-.17-.128,1.405-.234,2.981-.277,4.748-.064,1.767-.107,3.918-.107,6.494,0,2.789.043,5,.107,6.643.043,1.64.149,3.151.255,4.514-.532-.043-1.022-.106-1.469-.106-.468-.043-.894-.043-1.32-.043s-.873.021-1.341.043a12.577,12.577,0,0,0-1.49.106Zm-19.057,0c.128-1.469.234-3.087.3-4.812.064-1.746.106-3.854.106-6.345,0-2.321-.043-4.365-.106-6.2s-.17-3.492-.3-5.025c.4.043.788.085,1.15.106a10.378,10.378,0,0,0,1.15.043c.447,0,1.278-.021,2.47-.064,1.214-.043,2.193-.064,2.96-.064,2.576,0,4.45.49,5.664,1.427a5.322,5.322,0,0,1,1.789,4.45,6.076,6.076,0,0,1-2.214,5.153c-1.469,1.129-3.748,1.682-6.792,1.682-.106,0-.3,0-.554-.021-.234,0-.426-.021-.532-.021v4.812c0,.277.021.767.085,1.491.043.724.149,1.874.255,3.386-.49-.043-.979-.106-1.427-.106-.447-.043-.873-.043-1.32-.043-.4,0-.83.021-1.278.043a11.552,11.552,0,0,0-1.405.106Zm-23.358-17.247-.468.064a4.84,4.84,0,0,0-2.087-2.726,7.341,7.341,0,0,0-3.9-.958,6.625,6.625,0,0,0-5.515,2.47c-1.32,1.661-1.959,3.982-1.959,6.963,0,3.237.66,5.685,2,7.367a7.019,7.019,0,0,0,5.834,2.534,9.865,9.865,0,0,0,3.322-.639,10.318,10.318,0,0,0,3.024-1.789l.4.106-.745,2.747a16.01,16.01,0,0,1-3.258,1.15,17.931,17.931,0,0,1-3.6.362c-3.833,0-6.814-1.022-8.943-3.087s-3.194-4.94-3.194-8.624a10.871,10.871,0,0,1,3.449-8.411c2.3-2.108,5.366-3.151,9.22-3.151a17.631,17.631,0,0,1,3.641.383,19.866,19.866,0,0,1,3.641,1.235,16.044,16.044,0,0,0-.49,1.874,12.073,12.073,0,0,0-.383,2.129Zm10.263-5.515-9.2,22.72a7.867,7.867,0,0,1,2.917.064l6.2-16.545,3.386,9.475-6.239.277,7.623,3.6,1.15,3.215a24.764,24.764,0,0,1,5.621-.085l-9.028-22.72a18.46,18.46,0,0,1-2.427,0Zm66.6,0-9.2,22.72a7.855,7.855,0,0,1,2.917.064l6.2-16.545,3.386,9.475-6.239.277,7.623,3.6,1.15,3.215a24.744,24.744,0,0,1,5.621-.085l-9.028-22.72a18.46,18.46,0,0,1-2.427,0ZM457.678,107.4,447.5,130.269a3.655,3.655,0,0,1,2.065.085L457.188,112l4.621,11.69-6.26.106,7.729,3.641,1.129,2.853a10.234,10.234,0,0,1,3.322-.064l-9.348-22.741Zm128.589,11.413a5.252,5.252,0,0,0,3.769-1.15,5.126,5.126,0,0,0,1.15-3.748,4.7,4.7,0,0,0-.916-3.173,3.566,3.566,0,0,0-2.789-1.043c-.213,0-.511.021-.937.043a.232.232,0,0,1-.107.021c-.064.618-.106,1.214-.149,1.81-.043.618-.043,1.214-.043,1.81v5.43Zm-88.92-.49a3.178,3.178,0,0,0,.447.043h.617a10,10,0,0,0,5.494-1.214,4.6,4.6,0,0,0,.4-6.963,6.728,6.728,0,0,0-4.216-1.129c-.341,0-1.022.043-2,.106-.234.021-.426.021-.554.043-.064.49-.106,1.022-.149,1.554-.043.554-.043,1.15-.043,1.789v5.77ZM524.24,129.5a8.062,8.062,0,0,0,6.516-2.7c1.533-1.789,2.278-4.344,2.278-7.687,0-3.386-.745-5.983-2.236-7.729-1.49-1.767-3.684-2.64-6.558-2.64a7.954,7.954,0,0,0-6.516,2.726c-1.533,1.81-2.3,4.408-2.3,7.751,0,3.3.767,5.856,2.278,7.6a8.1,8.1,0,0,0,6.537,2.683Z" transform="translate(-363.43 -87.53)" fill="#fff" fill-rule="evenodd"/>
    </g>
    <g transform="matrix(1, 0, 0, 1, 69.3, 27)" filter="url(#Path_3)">
      <path id="Path_3-2" data-name="Path 3" d="M1475.9,198.194V195h1.405a1.693,1.693,0,0,1,.66.106.806.806,0,0,1,.362.3.933.933,0,0,1,.128.49.643.643,0,0,1-.234.554,1.019,1.019,0,0,1-.681.3.767.767,0,0,1,.256.17,1.887,1.887,0,0,1,.362.426l.554.873h-.532l-.426-.66c-.128-.192-.234-.341-.3-.447a.986.986,0,0,0-.213-.213.754.754,0,0,0-.192-.085.661.661,0,0,0-.234-.021h-.49v1.405Zm.4-1.789h.916a1.244,1.244,0,0,0,.447-.064.581.581,0,0,0,.255-.192.6.6,0,0,0,.085-.277.415.415,0,0,0-.17-.383.758.758,0,0,0-.532-.149h-1.022v1.065Z" transform="translate(-1172.85 -156.47)" fill="#fff" fill-rule="evenodd"/>
    </g>
    <g transform="matrix(1, 0, 0, 1, 69.3, 27)" filter="url(#Path_4)">
      <path id="Path_4-2" data-name="Path 4" d="M1469.737,187.79a2.736,2.736,0,1,1-2.725,2.747,2.735,2.735,0,0,1,2.725-2.747Zm0-.49a3.226,3.226,0,1,1-3.237,3.237,3.231,3.231,0,0,1,3.237-3.237Z" transform="translate(-1165.45 -150.41)" fill="#fff" fill-rule="evenodd"/>
    </g>
    <g transform="matrix(1, 0, 0, 1, 69.3, 27)" filter="url(#Path_509)">
      <path id="Path_509-2" data-name="Path 509" d="M1426.2,275.706a1.791,1.791,0,0,1-.064-.4l-.064-.83a1.43,1.43,0,0,0-.149-.66.659.659,0,0,0-.4-.277,1.063,1.063,0,0,0,.511-.447,1.238,1.238,0,0,0,.192-.7,1.578,1.578,0,0,0-.17-.724,1.348,1.348,0,0,0-.49-.49,1.785,1.785,0,0,0-.4-.149,6.03,6.03,0,0,0-.7-.021H1422.5v5.025h.681v-2.172h1.107a1.893,1.893,0,0,1,.916.149,1.032,1.032,0,0,1,.213.66l.043.66v.021a1.79,1.79,0,0,0,.128.681h.788v-.149A.333.333,0,0,1,1426.2,275.706Zm-.979-2.619a1.378,1.378,0,0,1-.894.213h-1.171v-1.7h1.171a1.579,1.579,0,0,1,.916.192.756.756,0,0,1,.234.617A.81.81,0,0,1,1425.225,273.087Z" transform="translate(-1130.82 -216.29)" fill="#fff" fill-rule="evenodd"/>
    </g>
    <g transform="matrix(1, 0, 0, 1, 69.3, 27)" filter="url(#Path_510)">
      <path id="Path_510-2" data-name="Path 510" d="M1367.6,276.025V271h3.577v.617h-2.917v1.512h2.7v.575h-2.7v1.682h2.981v.639Z" transform="translate(-1087.61 -216.29)" fill="#fff" fill-rule="evenodd"/>
    </g>
    <g transform="matrix(1, 0, 0, 1, 69.3, 27)" filter="url(#Path_511)">
      <path id="Path_511-2" data-name="Path 511" d="M1394.2,276.025V271h.745l2.342,3.641a1.428,1.428,0,0,1,.149.234c.021.064.064.128.085.192V271h.66v5.025h-.745l-2.385-3.7c-.043-.064-.064-.128-.106-.192s-.064-.128-.107-.192v4.088Z" transform="translate(-1108.55 -216.29)" fill="#fff" fill-rule="evenodd"/>
    </g>
    <g transform="matrix(1, 0, 0, 1, 69.3, 27)" filter="url(#Path_38)">
      <path id="Path_38-2" data-name="Path 38" d="M41.692,12.005C28.643,4.678,16.771-9.322,1.965,9.16L0,49.665a31.786,31.786,0,0,1,3.983-3.759C11.308,30.8,22.976,18.715,41.692,12Zm4.01,1.982q.795.332,1.6.612C31.135,23.635,24.275,33.268,18.835,42.993a16.881,16.881,0,0,0-3.693-.791C21.1,32.485,27.981,22.836,45.7,13.987Zm-9.119,39.6a.326.326,0,0,1,.006-.074C37.671,39.61,43.75,27.083,54.131,15.733,57.79,15.621,61.6,14.266,65.649,11L63.234,52.021c-10.351,8.946-18.8,6.341-26.659,1.57ZM25.667,46.346c9.827-19.029,15.078-26.962,24.426-30.953a16.078,16.078,0,0,0,1.828.255C39.617,24.934,32.764,36.222,29.6,48.936q-1.939-1.34-3.936-2.592Z" transform="translate(4.5 3.5)" fill="url(#linear-gradient)"/>
    </g>
  </g>
</svg>
